<svg xmlns="http://www.w3.org/2000/svg" width="48" height="48" viewBox="0 0 48 48">
    <g fill="none" fill-rule="evenodd">
        <circle cx="24" cy="24" r="24" fill="#6A3ECF" fill-rule="nonzero"/>
        <path fill="#FFF" d="M24 12c6.617 0 12 5.535 12 12.34 0 1.645-.31 3.241-.922 4.747-.281 1.021-1.193 1.77-2.276 1.77-1.308 0-2.8-1.09-2.8-2.435v-2.723c0-1.345 1.492-2.436 2.8-2.436.406 0 .789.106 1.123.292-.391-5.28-4.692-9.454-9.925-9.454-5.237 0-9.54 4.18-9.926 9.464a2.305 2.305 0 0 1 1.142-.302c1.308 0 2.784 1.09 2.784 2.436v2.723c0 1.345-1.476 2.435-2.784 2.435-1.065 0-1.966-.723-2.264-1.718l-.009.004A12.563 12.563 0 0 1 12 24.339C12 17.535 17.383 12 24 12zm2.792 20.5H31v2h-4.208a2.5 2.5 0 1 1 0-2z"/>
    </g>
</svg>
